<?xml version="1.0" encoding="utf-8"?>
<!-- Generator: Adobe Illustrator 17.0.0, SVG Export Plug-In . SVG Version: 6.00 Build 0)  -->
<!DOCTYPE svg PUBLIC "-//W3C//DTD SVG 1.0//EN" "http://www.w3.org/TR/2001/REC-SVG-20010904/DTD/svg10.dtd">
<svg version="1.0" id="Isolation_Mode" xmlns="http://www.w3.org/2000/svg" xmlns:xlink="http://www.w3.org/1999/xlink" x="0px"
	 y="0px" width="594.094px" height="395px" viewBox="0 0 594.094 395" enable-background="new 0 0 594.094 395"
	 xml:space="preserve">
<path fill-rule="evenodd" clip-rule="evenodd" fill="#FFFFFF" d="M340.586,103.884h-9.854c0.718,2.787,1.142,5.699,1.142,8.71
	c0,19.238-15.592,34.829-34.827,34.829c-19.234,0-34.827-15.591-34.827-34.829c0-3.011,0.426-5.923,1.144-8.71h-9.855v47.893
	c0,2.401,1.95,4.35,4.358,4.35h78.361c2.408,0,4.358-1.949,4.358-4.35V103.884z M340.586,73.411c0-2.403-1.95-4.353-4.358-4.353
	H323.17c-2.405,0-4.353,1.95-4.353,4.353v13.063c0,2.403,1.948,4.353,4.353,4.353h13.058c2.408,0,4.358-1.95,4.358-4.353V73.411z
	 M297.047,90.827c-12.023,0-21.768,9.744-21.768,21.767c0,12.021,9.745,21.77,21.768,21.77s21.77-9.749,21.77-21.77
	C318.817,100.571,309.07,90.827,297.047,90.827 M340.586,169.192h-87.077c-7.211,0-13.058-5.849-13.058-13.065V69.058
	c0-7.212,5.847-13.058,13.058-13.058h87.077c7.212,0,13.058,5.846,13.058,13.058v87.069
	C353.644,163.343,347.798,169.192,340.586,169.192"/>
<g>
	<path fill="#FFFFFF" d="M30.577,195.186c-12.16,5.094-25.528,19.467-29.75,37.521c-5.347,22.869,16.904,32.54,18.728,29.374
		c2.148-3.727-3.987-4.987-5.25-16.852c-1.632-15.326,5.493-32.451,14.461-39.965c1.667-1.396,1.587,0.547,1.587,4.141
		c0,6.428-0.355,64.122-0.355,76.163c0,16.293-0.673,21.438-1.882,26.522c-1.225,5.152-3.193,8.633-1.702,9.975
		c1.667,1.5,8.783-2.068,12.903-7.818c4.94-6.897,6.669-15.178,6.98-24.172c0.375-10.842,0.359-28.046,0.375-37.859
		c0.015-9,0.151-35.354-0.158-51.197C46.441,197.132,35.663,193.055,30.577,195.186z"/>
	<path fill="#FFFFFF" d="M591.424,280.779c-1.764,0-2.568,1.818-3.234,4.879c-2.311,10.643-4.738,13.045-7.869,13.045
		c-3.498,0-6.642-5.27-7.449-15.818c-0.635-8.294-0.533-23.565,0.279-38.754c0.166-3.121-0.695-6.209-9.066-9.25
		c-3.602-1.309-8.838-3.234-11.445,3.059c-7.365,17.779-10.248,31.895-10.926,37.627c-0.035,0.297-0.398,0.357-0.463-0.336
		c-0.432-4.592-1.398-12.938-1.518-30.471c-0.023-3.421-0.748-6.333-4.524-8.717c-2.45-1.548-9.89-4.283-12.569-1.028
		c-2.32,2.662-5.009,9.826-7.802,18.318c-2.269,6.901-3.85,11.57-3.85,11.57s0.029-18.623,0.057-25.686
		c0.012-2.665-1.816-3.554-2.367-3.714c-2.48-0.72-7.369-1.923-9.443-1.923c-2.56,0-3.188,1.431-3.188,3.516
		c0,0.273-0.404,24.518-0.404,41.473c0,0.736,0.001,1.54,0.004,2.394c-1.416,7.792-6.008,18.37-11.002,18.37
		c-5,0-7.358-4.422-7.358-24.634c0-11.79,0.354-16.918,0.527-25.445c0.102-4.912,0.297-8.685,0.285-9.54
		c-0.037-2.625-4.576-3.948-6.688-4.438c-2.122-0.492-3.966-0.684-5.406-0.602c-2.038,0.115-3.479,1.452-3.479,3.291
		c0,0.986,0.011,2.86,0.011,2.86c-2.625-4.125-6.848-6.996-9.656-7.828c-7.566-2.246-15.461-0.255-21.416,8.077
		c-4.733,6.621-7.586,14.121-8.709,24.894c-0.821,7.877-0.553,15.864,0.906,22.619c-1.763,7.622-5.036,10.745-8.62,10.745
		c-5.203,0-8.975-8.492-8.537-23.18c0.289-9.661,2.222-16.44,4.335-26.248c0.901-4.182,0.169-6.37-1.667-8.468
		c-1.684-1.925-5.271-2.907-10.43-1.698c-3.674,0.861-8.928,1.789-13.733,2.501c0,0,0.29-1.157,0.528-3.197
		c1.25-10.698-10.375-9.83-14.084-6.413c-2.214,2.04-3.721,4.446-4.293,8.772c-0.907,6.864,4.691,10.103,4.691,10.103
		c-1.837,8.41-6.34,19.394-10.988,27.336c-2.49,4.255-4.396,7.408-6.854,10.76c-0.009-1.248-0.016-2.496-0.02-3.738
		c-0.057-17.679,0.179-31.593,0.282-36.608c0.102-4.912,0.299-8.584,0.287-9.439c-0.027-1.92-1.148-2.646-3.48-3.563
		c-2.062-0.812-4.5-1.374-7.029-1.57c-3.191-0.248-5.115,1.444-5.065,3.446c0.01,0.378,0.01,2.699,0.01,2.699
		c-2.625-4.125-6.848-6.996-9.656-7.828c-7.566-2.246-15.461-0.255-21.416,8.077c-4.732,6.621-7.831,15.912-8.709,24.811
		c-0.818,8.295-0.667,15.344,0.448,21.282c-1.203,5.946-4.662,12.164-8.573,12.164c-5,0-7.845-4.422-7.845-24.634
		c0-11.79,0.354-16.918,0.527-25.445c0.102-4.912,0.297-8.685,0.285-9.54c-0.037-2.625-4.576-3.948-6.688-4.438
		c-2.21-0.512-4.118-0.699-5.583-0.591c-1.934,0.144-3.292,1.874-3.292,3.165c0,1.29,0,2.976,0,2.976
		c-2.625-4.125-6.848-6.996-9.656-7.828c-7.566-2.246-15.417-0.223-21.416,8.077c-3.912,5.412-7.079,11.412-8.709,24.694
		c-0.471,3.838-0.679,7.433-0.652,10.793c-1.56,9.54-8.449,20.535-14.086,20.535c-3.298,0-6.439-6.396-6.439-20.029
		c0-18.16,1.125-44.015,1.314-46.507c0,0,7.121-0.121,8.5-0.137c3.553-0.039,6.77,0.045,11.5-0.197
		c2.373-0.121,4.659-8.637,2.21-9.691c-1.109-0.477-8.955-0.895-12.065-0.961c-2.615-0.059-9.895-0.598-9.895-0.598
		s0.653-17.162,0.806-18.975c0.129-1.512-1.826-2.289-2.947-2.762c-2.727-1.152-5.165-1.705-8.056-2.301
		c-3.994-0.824-5.807-0.018-6.16,3.354c-0.533,5.115-0.809,20.101-0.809,20.101c-2.932,0-12.943-0.573-15.875-0.573
		c-2.725,0-5.664,11.715-1.898,11.859c4.333,0.168,11.884,0.314,16.89,0.464c0,0-0.223,26.282-0.223,34.396
		c0,0.863,0.004,1.694,0.009,2.501c-2.755,14.36-12.46,22.117-12.46,22.117c2.084-9.5-2.173-16.634-9.84-22.673
		c-2.826-2.226-8.402-6.438-14.642-11.055c0,0,3.614-3.561,6.819-10.729c2.271-5.076,2.369-10.885-3.206-12.166
		c-9.21-2.117-16.804,4.646-19.069,11.867c-1.755,5.595-0.819,9.745,2.619,14.058c0.251,0.315,0.523,0.636,0.804,0.96
		c-2.079,4.007-4.935,9.402-7.354,13.586c-6.715,11.616-11.786,20.804-15.62,20.804c-3.064,0-3.022-9.328-3.022-18.062
		c0-7.529,0.556-18.849,1-30.569c0.147-3.876-1.791-6.084-5.04-8.084c-1.974-1.215-6.187-3.604-8.627-3.604
		c-3.652,0-14.189,0.497-24.145,29.296c-1.255,3.63-3.72,10.244-3.72,10.244l0.212-34.632c0-0.812-0.433-1.598-1.423-2.135
		c-1.678-0.91-6.159-2.773-10.143-2.773c-1.899,0-2.846,0.883-2.846,2.643l-0.348,54.183c0,4.117,0.107,8.92,0.515,11.02
		c0.405,2.103,1.062,3.814,1.876,4.832c0.812,1.016,1.752,1.791,3.302,2.111c1.442,0.297,9.339,1.311,9.75-1.707
		c0.492-3.617,0.51-7.529,4.657-22.119c6.456-22.715,14.873-33.798,18.831-37.734c0.691-0.688,1.481-0.729,1.443,0.397
		c-0.168,4.98-0.762,17.424-1.163,27.996c-1.072,28.292,4.075,33.536,11.43,33.536c5.627,0,13.559-5.592,22.062-19.744
		c5.3-8.82,10.447-17.468,14.146-23.701c2.577,2.386,5.468,4.953,8.359,7.696c6.716,6.374,8.921,12.431,7.458,18.177
		c-1.119,4.393-5.333,8.92-12.833,4.52c-2.186-1.283-3.12-2.275-5.317-3.723c-1.181-0.777-2.983-1.01-4.064-0.195
		c-2.809,2.117-4.415,4.81-5.332,8.145c-0.892,3.244,2.357,4.959,5.725,6.459c2.9,1.291,9.133,2.461,13.108,2.594
		c15.487,0.518,27.895-7.478,36.531-28.104c1.547,17.814,8.126,27.893,19.559,27.893c7.643,0,15.306-9.879,18.657-19.598
		c0.962,3.962,2.386,7.406,4.225,10.32c8.809,13.957,25.898,10.953,34.482-0.898c2.653-3.662,3.058-4.978,3.058-4.978
		c1.252,11.191,10.264,15.102,15.424,15.102c5.779,0,11.746-2.732,15.928-12.147c0.49,1.022,1.025,1.998,1.609,2.923
		c8.809,13.957,25.898,10.953,34.482-0.898c0.404-0.557,0.756-1.06,1.062-1.514l0.252,7.352c0,0-4.896,4.492-7.902,7.248
		c-13.247,12.141-23.311,21.35-24.051,32.074c-0.941,13.674,10.142,18.756,18.539,19.422c8.902,0.707,16.539-4.215,21.227-11.103
		c4.125-6.062,6.824-19.111,6.627-32c-0.079-5.161-0.209-11.723-0.311-18.757c4.65-5.4,9.89-12.226,14.713-20.214
		c5.258-8.707,10.892-20.398,13.776-29.497c0,0,4.895,0.042,10.119-0.3c1.671-0.109,2.15,0.231,1.842,1.457
		c-0.373,1.48-6.6,25.498-0.917,41.498c3.89,10.953,12.659,14.477,17.858,14.477c6.086,0,11.907-4.596,15.027-11.421
		c0.376,0.761,0.77,1.497,1.198,2.177c8.809,13.957,25.838,10.936,34.482-0.898c1.95-2.67,3.058-4.978,3.058-4.978
		c1.855,11.582,10.862,15.16,16.021,15.16c5.374,0,10.474-2.203,14.611-11.994c0.173,4.312,0.445,7.836,0.875,8.947
		c0.262,0.68,1.789,1.533,2.9,1.945c4.916,1.822,9.93,0.961,11.785,0.586c1.285-0.26,2.287-1.291,2.424-3.953
		c0.359-6.99,0.139-18.734,2.258-27.463c3.557-14.648,6.875-20.331,8.449-23.143c0.881-1.576,1.875-1.836,1.911-0.168
		c0.073,3.375,0.241,13.286,1.62,26.602c1.012,9.793,2.363,15.582,3.402,17.414c2.965,5.238,6.627,5.486,9.609,5.486
		c1.896,0,5.864-0.523,5.509-3.857c-0.173-1.625,0.13-11.668,3.637-26.099c2.29-9.424,6.108-17.939,7.485-21.052
		c0.508-1.148,0.744-0.243,0.736-0.067c-0.29,6.49-0.941,27.718,1.703,39.328c3.584,15.728,13.951,17.488,17.564,17.488
		c7.713,0,14.021-5.867,16.146-21.305C594.453,283.648,593.695,280.779,591.424,280.779z M268.335,271.235
		c-0.442,8.17-2.036,15-4.594,19.961c-4.628,8.979-13.785,11.826-17.822-1.148c-2.911-9.355-1.92-22.112-0.709-29.002
		c1.797-10.227,6.297-17.477,13.322-16.79C265.748,244.962,269.256,254.235,268.335,271.235z M338.836,271.353
		c-0.412,7.715-2.412,15.465-4.594,19.844c-4.504,9.041-13.92,11.867-17.822-1.148c-2.668-8.893-2.029-20.402-0.709-27.653
		c1.713-9.41,5.865-18.139,13.322-18.139C336.283,244.256,339.859,252.21,338.836,271.353z M340.676,323.988
		c-0.098,14.074-2.312,26.414-7.062,29.998c-6.737,5.082-15.792,1.27-13.917-9c1.659-9.088,9.505-18.369,20.999-29.709
		C340.695,315.277,340.719,317.863,340.676,323.988z M462.378,271.435c-0.392,8.47-2.267,15.091-4.594,19.761
		c-4.505,9.041-13.853,11.848-17.822-1.148c-2.163-7.084-2.264-18.915-0.709-28.802c1.583-10.07,6.003-17.677,13.322-16.99
		C459.794,244.933,463.173,254.235,462.378,271.435z"/>
</g>
</svg>
